<svg xmlns="http://www.w3.org/2000/svg" width="1100" height="760" viewBox="0 0 1100 760">
<rect width="100%" height="100%" fill="#fcfbf7"/>
<text x="550.0" y="36" text-anchor="middle" font-size="24" font-family="Helvetica, Arial, sans-serif" fill="#222">Qwen3-8B Non-Reasoning DivPO Run 2</text>
<rect x="70" y="110" width="960" height="250.0" fill="white" stroke="#cfcfcf" stroke-width="1"/>
<text x="70" y="98" font-size="16" font-family="Helvetica, Arial, sans-serif" fill="#222">DPO Loss</text>
<rect x="70" y="410.0" width="960" height="250.0" fill="white" stroke="#cfcfcf" stroke-width="1"/>
<text x="70" y="398.0" font-size="16" font-family="Helvetica, Arial, sans-serif" fill="#222">Reward Margin</text>
<line x1="89.30" y1="110.00" x2="89.30" y2="360.00" stroke="#d9d9d9" stroke-width="1"/>
<line x1="89.30" y1="410.00" x2="89.30" y2="660.00" stroke="#d9d9d9" stroke-width="1"/>
<line x1="113.42" y1="110.00" x2="113.42" y2="360.00" stroke="#d9d9d9" stroke-width="1"/>
<line x1="113.42" y1="410.00" x2="113.42" y2="660.00" stroke="#d9d9d9" stroke-width="1"/>
<line x1="137.54" y1="110.00" x2="137.54" y2="360.00" stroke="#d9d9d9" stroke-width="1"/>
<line x1="137.54" y1="410.00" x2="137.54" y2="660.00" stroke="#d9d9d9" stroke-width="1"/>
<line x1="161.66" y1="110.00" x2="161.66" y2="360.00" stroke="#d9d9d9" stroke-width="1"/>
<line x1="161.66" y1="410.00" x2="161.66" y2="660.00" stroke="#d9d9d9" stroke-width="1"/>
<line x1="185.78" y1="110.00" x2="185.78" y2="360.00" stroke="#d9d9d9" stroke-width="1"/>
<line x1="185.78" y1="410.00" x2="185.78" y2="660.00" stroke="#d9d9d9" stroke-width="1"/>
<line x1="209.90" y1="110.00" x2="209.90" y2="360.00" stroke="#d9d9d9" stroke-width="1"/>
<line x1="209.90" y1="410.00" x2="209.90" y2="660.00" stroke="#d9d9d9" stroke-width="1"/>
<line x1="234.02" y1="110.00" x2="234.02" y2="360.00" stroke="#d9d9d9" stroke-width="1"/>
<line x1="234.02" y1="410.00" x2="234.02" y2="660.00" stroke="#d9d9d9" stroke-width="1"/>
<line x1="258.14" y1="110.00" x2="258.14" y2="360.00" stroke="#d9d9d9" stroke-width="1"/>
<line x1="258.14" y1="410.00" x2="258.14" y2="660.00" stroke="#d9d9d9" stroke-width="1"/>
<line x1="282.26" y1="110.00" x2="282.26" y2="360.00" stroke="#d9d9d9" stroke-width="1"/>
<line x1="282.26" y1="410.00" x2="282.26" y2="660.00" stroke="#d9d9d9" stroke-width="1"/>
<line x1="306.38" y1="110.00" x2="306.38" y2="360.00" stroke="#d9d9d9" stroke-width="1"/>
<line x1="306.38" y1="410.00" x2="306.38" y2="660.00" stroke="#d9d9d9" stroke-width="1"/>
<line x1="330.50" y1="110.00" x2="330.50" y2="360.00" stroke="#d9d9d9" stroke-width="1"/>
<line x1="330.50" y1="410.00" x2="330.50" y2="660.00" stroke="#d9d9d9" stroke-width="1"/>
<line x1="354.62" y1="110.00" x2="354.62" y2="360.00" stroke="#d9d9d9" stroke-width="1"/>
<line x1="354.62" y1="410.00" x2="354.62" y2="660.00" stroke="#d9d9d9" stroke-width="1"/>
<line x1="378.74" y1="110.00" x2="378.74" y2="360.00" stroke="#d9d9d9" stroke-width="1"/>
<line x1="378.74" y1="410.00" x2="378.74" y2="660.00" stroke="#d9d9d9" stroke-width="1"/>
<line x1="402.86" y1="110.00" x2="402.86" y2="360.00" stroke="#d9d9d9" stroke-width="1"/>
<line x1="402.86" y1="410.00" x2="402.86" y2="660.00" stroke="#d9d9d9" stroke-width="1"/>
<line x1="426.98" y1="110.00" x2="426.98" y2="360.00" stroke="#d9d9d9" stroke-width="1"/>
<line x1="426.98" y1="410.00" x2="426.98" y2="660.00" stroke="#d9d9d9" stroke-width="1"/>
<line x1="451.11" y1="110.00" x2="451.11" y2="360.00" stroke="#d9d9d9" stroke-width="1"/>
<line x1="451.11" y1="410.00" x2="451.11" y2="660.00" stroke="#d9d9d9" stroke-width="1"/>
<line x1="475.23" y1="110.00" x2="475.23" y2="360.00" stroke="#d9d9d9" stroke-width="1"/>
<line x1="475.23" y1="410.00" x2="475.23" y2="660.00" stroke="#d9d9d9" stroke-width="1"/>
<line x1="499.35" y1="110.00" x2="499.35" y2="360.00" stroke="#d9d9d9" stroke-width="1"/>
<line x1="499.35" y1="410.00" x2="499.35" y2="660.00" stroke="#d9d9d9" stroke-width="1"/>
<line x1="523.47" y1="110.00" x2="523.47" y2="360.00" stroke="#d9d9d9" stroke-width="1"/>
<line x1="523.47" y1="410.00" x2="523.47" y2="660.00" stroke="#d9d9d9" stroke-width="1"/>
<line x1="547.59" y1="110.00" x2="547.59" y2="360.00" stroke="#d9d9d9" stroke-width="1"/>
<line x1="547.59" y1="410.00" x2="547.59" y2="660.00" stroke="#d9d9d9" stroke-width="1"/>
<line x1="571.71" y1="110.00" x2="571.71" y2="360.00" stroke="#d9d9d9" stroke-width="1"/>
<line x1="571.71" y1="410.00" x2="571.71" y2="660.00" stroke="#d9d9d9" stroke-width="1"/>
<line x1="595.83" y1="110.00" x2="595.83" y2="360.00" stroke="#d9d9d9" stroke-width="1"/>
<line x1="595.83" y1="410.00" x2="595.83" y2="660.00" stroke="#d9d9d9" stroke-width="1"/>
<line x1="619.95" y1="110.00" x2="619.95" y2="360.00" stroke="#d9d9d9" stroke-width="1"/>
<line x1="619.95" y1="410.00" x2="619.95" y2="660.00" stroke="#d9d9d9" stroke-width="1"/>
<line x1="644.07" y1="110.00" x2="644.07" y2="360.00" stroke="#d9d9d9" stroke-width="1"/>
<line x1="644.07" y1="410.00" x2="644.07" y2="660.00" stroke="#d9d9d9" stroke-width="1"/>
<line x1="668.19" y1="110.00" x2="668.19" y2="360.00" stroke="#d9d9d9" stroke-width="1"/>
<line x1="668.19" y1="410.00" x2="668.19" y2="660.00" stroke="#d9d9d9" stroke-width="1"/>
<line x1="692.31" y1="110.00" x2="692.31" y2="360.00" stroke="#d9d9d9" stroke-width="1"/>
<line x1="692.31" y1="410.00" x2="692.31" y2="660.00" stroke="#d9d9d9" stroke-width="1"/>
<line x1="716.43" y1="110.00" x2="716.43" y2="360.00" stroke="#d9d9d9" stroke-width="1"/>
<line x1="716.43" y1="410.00" x2="716.43" y2="660.00" stroke="#d9d9d9" stroke-width="1"/>
<line x1="740.55" y1="110.00" x2="740.55" y2="360.00" stroke="#d9d9d9" stroke-width="1"/>
<line x1="740.55" y1="410.00" x2="740.55" y2="660.00" stroke="#d9d9d9" stroke-width="1"/>
<line x1="764.67" y1="110.00" x2="764.67" y2="360.00" stroke="#d9d9d9" stroke-width="1"/>
<line x1="764.67" y1="410.00" x2="764.67" y2="660.00" stroke="#d9d9d9" stroke-width="1"/>
<line x1="788.79" y1="110.00" x2="788.79" y2="360.00" stroke="#d9d9d9" stroke-width="1"/>
<line x1="788.79" y1="410.00" x2="788.79" y2="660.00" stroke="#d9d9d9" stroke-width="1"/>
<line x1="812.91" y1="110.00" x2="812.91" y2="360.00" stroke="#d9d9d9" stroke-width="1"/>
<line x1="812.91" y1="410.00" x2="812.91" y2="660.00" stroke="#d9d9d9" stroke-width="1"/>
<line x1="837.04" y1="110.00" x2="837.04" y2="360.00" stroke="#d9d9d9" stroke-width="1"/>
<line x1="837.04" y1="410.00" x2="837.04" y2="660.00" stroke="#d9d9d9" stroke-width="1"/>
<line x1="861.16" y1="110.00" x2="861.16" y2="360.00" stroke="#d9d9d9" stroke-width="1"/>
<line x1="861.16" y1="410.00" x2="861.16" y2="660.00" stroke="#d9d9d9" stroke-width="1"/>
<line x1="885.28" y1="110.00" x2="885.28" y2="360.00" stroke="#d9d9d9" stroke-width="1"/>
<line x1="885.28" y1="410.00" x2="885.28" y2="660.00" stroke="#d9d9d9" stroke-width="1"/>
<line x1="909.40" y1="110.00" x2="909.40" y2="360.00" stroke="#d9d9d9" stroke-width="1"/>
<line x1="909.40" y1="410.00" x2="909.40" y2="660.00" stroke="#d9d9d9" stroke-width="1"/>
<line x1="933.52" y1="110.00" x2="933.52" y2="360.00" stroke="#d9d9d9" stroke-width="1"/>
<line x1="933.52" y1="410.00" x2="933.52" y2="660.00" stroke="#d9d9d9" stroke-width="1"/>
<line x1="957.64" y1="110.00" x2="957.64" y2="360.00" stroke="#d9d9d9" stroke-width="1"/>
<line x1="957.64" y1="410.00" x2="957.64" y2="660.00" stroke="#d9d9d9" stroke-width="1"/>
<line x1="981.76" y1="110.00" x2="981.76" y2="360.00" stroke="#d9d9d9" stroke-width="1"/>
<line x1="981.76" y1="410.00" x2="981.76" y2="660.00" stroke="#d9d9d9" stroke-width="1"/>
<line x1="1005.88" y1="110.00" x2="1005.88" y2="360.00" stroke="#d9d9d9" stroke-width="1"/>
<line x1="1005.88" y1="410.00" x2="1005.88" y2="660.00" stroke="#d9d9d9" stroke-width="1"/>
<line x1="1030.00" y1="110.00" x2="1030.00" y2="360.00" stroke="#d9d9d9" stroke-width="1"/>
<line x1="1030.00" y1="410.00" x2="1030.00" y2="660.00" stroke="#d9d9d9" stroke-width="1"/>
<path d="M 70.00 142.15 L 74.82 132.95 L 79.65 134.39 L 84.47 127.15 L 89.30 142.38 L 94.12 147.40 L 98.94 142.90 L 103.77 143.50 L 108.59 137.23 L 113.42 139.54 L 118.24 145.98 L 123.07 139.25 L 127.89 140.62 L 132.71 150.06 L 137.54 144.85 L 142.36 138.45 L 147.19 145.88 L 152.01 161.50 L 156.83 150.75 L 161.66 135.29 L 166.48 159.99 L 171.31 145.38 L 176.13 154.78 L 180.95 159.25 L 185.78 152.16 L 190.60 160.35 L 195.43 146.81 L 200.25 157.89 L 205.08 160.13 L 209.90 148.19 L 214.72 174.69 L 219.55 161.52 L 224.37 154.32 L 229.20 148.29 L 234.02 179.47 L 238.84 160.48 L 243.67 158.12 L 248.49 165.36 L 253.32 151.45 L 258.14 165.67 L 262.96 173.71 L 267.79 159.61 L 272.61 172.08 L 277.44 160.37 L 282.26 184.95 L 287.09 192.33 L 291.91 194.89 L 296.73 172.25 L 301.56 166.71 L 306.38 140.88 L 311.21 191.18 L 316.03 183.74 L 320.85 195.54 L 325.68 168.66 L 330.50 184.58 L 335.33 173.49 L 340.15 202.00 L 344.97 197.38 L 349.80 150.82 L 354.62 223.76 L 359.45 199.95 L 364.27 180.01 L 369.10 163.73 L 373.92 193.13 L 378.74 171.30 L 383.57 187.42 L 388.39 163.29 L 393.22 188.88 L 398.04 182.81 L 402.86 189.94 L 407.69 195.11 L 412.51 110.00 L 417.34 205.81 L 422.16 234.98 L 426.98 302.49 L 431.81 282.42 L 436.63 231.57 L 441.46 302.00 L 446.28 279.68 L 451.11 285.63 L 455.93 281.34 L 460.75 267.23 L 465.58 282.83 L 470.40 274.96 L 475.23 284.16 L 480.05 282.01 L 484.87 273.55 L 489.70 286.75 L 494.52 251.42 L 499.35 249.81 L 504.17 289.99 L 508.99 306.38 L 513.82 290.49 L 518.64 250.33 L 523.47 293.02 L 528.29 280.71 L 533.12 253.19 L 537.94 279.96 L 542.76 298.84 L 547.59 286.08 L 552.41 261.27 L 557.24 303.59 L 562.06 292.62 L 566.88 269.26 L 571.71 321.41 L 576.53 322.67 L 581.36 298.59 L 586.18 252.36 L 591.01 296.98 L 595.83 313.87 L 600.65 300.51 L 605.48 277.24 L 610.30 299.51 L 615.13 266.64 L 619.95 259.82 L 624.77 285.80 L 629.60 311.96 L 634.42 287.21 L 639.25 289.15 L 644.07 313.91 L 648.89 309.18 L 653.72 285.87 L 658.54 260.70 L 663.37 272.27 L 668.19 323.66 L 673.02 319.46 L 677.84 306.18 L 682.66 298.49 L 687.49 304.94 L 692.31 335.98 L 697.14 319.74 L 701.96 279.49 L 706.78 291.06 L 711.61 327.27 L 716.43 315.35 L 721.26 311.58 L 726.08 315.00 L 730.90 313.19 L 735.73 316.61 L 740.55 317.51 L 745.38 329.08 L 750.20 312.73 L 755.03 302.30 L 759.85 298.14 L 764.67 306.24 L 769.50 227.74 L 774.32 341.90 L 779.15 347.94 L 783.97 353.64 L 788.79 330.65 L 793.62 298.91 L 798.44 351.96 L 803.27 330.30 L 808.09 344.32 L 812.91 335.55 L 817.74 334.49 L 822.56 341.18 L 827.39 341.57 L 832.21 340.25 L 837.04 341.46 L 841.86 329.15 L 846.68 339.45 L 851.51 290.77 L 856.33 318.60 L 861.16 339.56 L 865.98 346.57 L 870.80 340.97 L 875.63 309.30 L 880.45 348.57 L 885.28 329.75 L 890.10 331.96 L 894.92 325.32 L 899.75 344.04 L 904.57 350.45 L 909.40 327.37 L 914.22 346.70 L 919.05 326.96 L 923.87 348.02 L 928.69 360.00 L 933.52 356.97 L 938.34 345.83 L 943.17 334.28 L 947.99 346.41 L 952.81 347.79 L 957.64 356.97 L 962.46 327.40 L 967.29 331.04 L 972.11 339.93 L 976.93 341.15 L 981.76 351.01 L 986.58 351.00 L 991.41 351.14 L 996.23 352.30 L 1001.06 357.15 L 1005.88 354.40 L 1010.70 346.93 L 1015.53 308.77 L 1020.35 342.42 L 1025.18 356.48 L 1030.00 354.37" fill="none" stroke="#d1a47b" stroke-width="1.5" opacity="0.55"/>
<path d="M 70.00 119.36 L 74.82 113.97 L 79.65 112.74 L 84.47 110.00 L 89.30 111.93 L 94.12 114.19 L 98.94 115.05 L 103.77 115.79 L 108.59 115.55 L 113.42 115.62 L 118.24 116.07 L 123.07 116.81 L 127.89 117.54 L 132.71 120.22 L 137.54 120.51 L 142.36 119.46 L 147.19 119.81 L 152.01 121.92 L 156.83 123.50 L 161.66 123.00 L 166.48 124.65 L 171.31 125.36 L 176.13 127.02 L 180.95 128.10 L 185.78 128.95 L 190.60 131.52 L 195.43 131.63 L 200.25 131.21 L 205.08 132.31 L 209.90 133.82 L 214.72 135.54 L 219.55 137.43 L 224.37 137.37 L 229.20 136.09 L 234.02 139.29 L 238.84 139.30 L 243.67 140.63 L 248.49 141.50 L 253.32 140.49 L 258.14 142.53 L 262.96 142.42 L 267.79 142.19 L 272.61 144.27 L 277.44 145.69 L 282.26 146.33 L 287.09 150.06 L 291.91 154.37 L 296.73 155.18 L 301.56 156.96 L 306.38 154.06 L 311.21 156.11 L 316.03 158.93 L 320.85 161.68 L 325.68 162.65 L 330.50 162.61 L 335.33 160.40 L 340.15 161.24 L 344.97 164.18 L 349.80 162.32 L 354.62 172.03 L 359.45 173.05 L 364.27 172.62 L 369.10 168.89 L 373.92 171.76 L 378.74 170.20 L 383.57 171.83 L 388.39 167.30 L 393.22 166.30 L 398.04 170.05 L 402.86 166.09 L 407.69 165.52 L 412.51 157.32 L 417.34 162.25 L 422.16 167.15 L 426.98 182.52 L 431.81 193.64 L 436.63 201.64 L 441.46 214.89 L 446.28 226.24 L 451.11 237.44 L 455.93 247.54 L 460.75 265.96 L 465.58 274.98 L 470.40 279.66 L 475.23 277.52 L 480.05 277.47 L 484.87 282.39 L 489.70 280.60 L 494.52 277.29 L 499.35 273.10 L 504.17 274.11 L 508.99 278.69 L 513.82 279.59 L 518.64 276.71 L 523.47 277.75 L 528.29 277.59 L 533.12 275.21 L 537.94 274.41 L 542.76 279.97 L 547.59 284.21 L 552.41 280.85 L 557.24 280.52 L 562.06 280.77 L 566.88 282.99 L 571.71 286.31 L 576.53 291.23 L 581.36 296.55 L 586.18 293.31 L 591.01 293.10 L 595.83 296.35 L 600.65 300.95 L 605.48 297.86 L 610.30 298.67 L 615.13 298.36 L 619.95 291.15 L 624.77 286.83 L 629.60 288.39 L 634.42 292.48 L 639.25 291.56 L 644.07 291.56 L 648.89 292.58 L 653.72 293.59 L 658.54 289.04 L 663.37 289.70 L 668.19 297.18 L 673.02 301.12 L 677.84 300.44 L 682.66 301.77 L 687.49 303.62 L 692.31 306.20 L 697.14 307.44 L 701.96 306.69 L 706.78 310.25 L 711.61 316.69 L 716.43 315.72 L 721.26 314.79 L 726.08 315.83 L 730.90 317.55 L 735.73 318.91 L 740.55 316.75 L 745.38 317.85 L 750.20 321.74 L 755.03 323.06 L 759.85 319.64 L 764.67 318.58 L 769.50 308.76 L 774.32 311.91 L 779.15 315.98 L 783.97 320.32 L 788.79 321.85 L 793.62 318.32 L 798.44 322.92 L 803.27 326.19 L 808.09 331.60 L 812.91 335.04 L 817.74 347.54 L 822.56 347.46 L 827.39 346.71 L 832.21 345.14 L 837.04 346.41 L 841.86 349.95 L 846.68 348.48 L 851.51 343.85 L 856.33 340.84 L 861.16 341.31 L 865.98 342.73 L 870.80 342.70 L 875.63 338.92 L 880.45 339.90 L 885.28 338.53 L 890.10 338.85 L 894.92 337.20 L 899.75 343.44 L 904.57 347.17 L 909.40 345.74 L 914.22 345.76 L 919.05 344.12 L 923.87 348.65 L 928.69 349.99 L 933.52 353.18 L 938.34 354.80 L 943.17 355.85 L 947.99 356.13 L 952.81 355.82 L 957.64 359.28 L 962.46 357.02 L 967.29 357.50 L 972.11 356.55 L 976.93 354.35 L 981.76 353.65 L 986.58 354.25 L 991.41 356.23 L 996.23 356.92 L 1001.06 358.01 L 1005.88 357.71 L 1010.70 360.00 L 1015.53 357.39 L 1020.35 357.68 L 1025.18 359.48 L 1030.00 359.87" fill="none" stroke="#9c3f12" stroke-width="3"/>
<path d="M 70.00 655.02 L 74.82 657.03 L 79.65 656.68 L 84.47 658.46 L 89.30 654.78 L 94.12 653.64 L 98.94 654.61 L 103.77 654.56 L 108.59 656.02 L 113.42 655.53 L 118.24 653.94 L 123.07 655.50 L 127.89 655.17 L 132.71 652.76 L 137.54 654.05 L 142.36 655.55 L 147.19 653.78 L 152.01 650.00 L 156.83 652.55 L 161.66 656.43 L 166.48 650.29 L 171.31 653.92 L 176.13 651.63 L 180.95 650.18 L 185.78 652.41 L 190.60 650.00 L 195.43 653.32 L 200.25 650.71 L 205.08 650.09 L 209.90 652.81 L 214.72 645.91 L 219.55 649.60 L 224.37 651.58 L 229.20 652.38 L 234.02 644.50 L 238.84 649.07 L 243.67 649.12 L 248.49 648.44 L 253.32 651.04 L 258.14 647.82 L 262.96 645.26 L 267.79 649.74 L 272.61 645.08 L 277.44 649.31 L 282.26 641.76 L 287.09 640.13 L 291.91 638.87 L 296.73 645.95 L 301.56 646.64 L 306.38 652.28 L 311.21 639.70 L 316.03 640.26 L 320.85 639.44 L 325.68 645.84 L 330.50 641.72 L 335.33 644.99 L 340.15 636.58 L 344.97 633.79 L 349.80 650.17 L 354.62 628.55 L 359.45 633.09 L 364.27 638.45 L 369.10 646.07 L 373.92 632.38 L 378.74 646.20 L 383.57 639.63 L 388.39 643.45 L 393.22 641.16 L 398.04 640.75 L 402.86 640.06 L 407.69 633.46 L 412.51 660.00 L 417.34 632.63 L 422.16 625.57 L 426.98 588.78 L 431.81 602.67 L 436.63 618.87 L 441.46 587.29 L 446.28 601.80 L 451.11 600.74 L 455.93 600.37 L 460.75 605.56 L 465.58 595.26 L 470.40 598.33 L 475.23 598.18 L 480.05 598.62 L 484.87 598.87 L 489.70 597.43 L 494.52 614.42 L 499.35 613.89 L 504.17 587.95 L 508.99 577.24 L 513.82 591.89 L 518.64 605.10 L 523.47 587.62 L 528.29 595.22 L 533.12 605.88 L 537.94 595.40 L 542.76 577.55 L 547.59 578.02 L 552.41 599.57 L 557.24 582.70 L 562.06 590.74 L 566.88 594.43 L 571.71 563.70 L 576.53 563.00 L 581.36 573.37 L 586.18 589.90 L 591.01 579.65 L 595.83 571.18 L 600.65 570.03 L 605.48 585.03 L 610.30 570.00 L 615.13 584.34 L 619.95 584.82 L 624.77 567.90 L 629.60 555.69 L 634.42 568.53 L 639.25 550.66 L 644.07 550.49 L 648.89 553.96 L 653.72 576.53 L 658.54 591.79 L 663.37 584.59 L 668.19 548.53 L 673.02 539.73 L 677.84 568.71 L 682.66 569.88 L 687.49 570.28 L 692.31 544.97 L 697.14 544.28 L 701.96 562.27 L 706.78 564.90 L 711.61 544.17 L 716.43 557.70 L 721.26 553.75 L 726.08 560.09 L 730.90 544.28 L 735.73 563.89 L 740.55 551.17 L 745.38 536.74 L 750.20 555.60 L 755.03 552.77 L 759.85 564.41 L 764.67 538.26 L 769.50 608.38 L 774.32 513.97 L 779.15 492.61 L 783.97 475.98 L 788.79 520.17 L 793.62 550.34 L 798.44 464.36 L 803.27 518.14 L 808.09 520.18 L 812.91 511.14 L 817.74 527.07 L 822.56 505.31 L 827.39 502.72 L 832.21 499.80 L 837.04 504.98 L 841.86 513.28 L 846.68 521.91 L 851.51 562.96 L 856.33 553.82 L 861.16 482.52 L 865.98 483.20 L 870.80 503.36 L 875.63 530.35 L 880.45 491.26 L 885.28 534.88 L 890.10 531.10 L 894.92 532.68 L 899.75 472.99 L 904.57 474.01 L 909.40 511.81 L 914.22 490.77 L 919.05 525.17 L 923.87 493.25 L 928.69 447.13 L 933.52 458.85 L 938.34 477.05 L 943.17 500.64 L 947.99 489.26 L 952.81 493.02 L 957.64 460.39 L 962.46 483.96 L 967.29 486.00 L 972.11 494.56 L 976.93 493.73 L 981.76 462.55 L 986.58 443.92 L 991.41 461.61 L 996.23 431.73 L 1001.06 432.97 L 1005.88 420.81 L 1010.70 476.50 L 1015.53 506.67 L 1020.35 498.63 L 1025.18 449.13 L 1030.00 410.00" fill="none" stroke="#9bb8d8" stroke-width="1.5" opacity="0.55"/>
<path d="M 70.00 657.82 L 74.82 659.05 L 79.65 659.32 L 84.47 660.00 L 89.30 659.51 L 94.12 658.94 L 98.94 658.71 L 103.77 658.53 L 108.59 658.59 L 113.42 658.57 L 118.24 658.44 L 123.07 658.25 L 127.89 658.07 L 132.71 657.37 L 137.54 657.28 L 142.36 657.51 L 147.19 657.41 L 152.01 656.85 L 156.83 656.42 L 161.66 656.53 L 166.48 656.08 L 171.31 655.89 L 176.13 655.46 L 180.95 655.14 L 185.78 654.94 L 190.60 654.26 L 195.43 654.20 L 200.25 654.29 L 205.08 653.99 L 209.90 653.54 L 214.72 653.00 L 219.55 652.47 L 224.37 652.47 L 229.20 652.74 L 234.02 651.77 L 238.84 651.65 L 243.67 651.14 L 248.49 650.86 L 253.32 650.97 L 258.14 650.36 L 262.96 650.28 L 267.79 650.30 L 272.61 649.50 L 277.44 649.12 L 282.26 648.79 L 287.09 647.69 L 291.91 646.43 L 296.73 646.12 L 301.56 645.58 L 306.38 646.13 L 311.21 645.45 L 316.03 644.28 L 320.85 643.59 L 325.68 643.17 L 330.50 643.16 L 335.33 643.76 L 340.15 643.48 L 344.97 641.99 L 349.80 642.42 L 354.62 639.51 L 359.45 638.69 L 364.27 638.47 L 369.10 639.29 L 373.92 637.63 L 378.74 638.18 L 383.57 637.52 L 388.39 638.37 L 393.22 639.27 L 398.04 638.12 L 402.86 639.53 L 407.69 639.57 L 412.51 642.22 L 417.34 640.57 L 422.16 639.73 L 426.98 632.68 L 431.81 628.14 L 436.63 625.13 L 441.46 618.51 L 446.28 613.73 L 451.11 608.90 L 455.93 604.84 L 460.75 598.15 L 465.58 593.56 L 470.40 590.22 L 475.23 591.37 L 480.05 590.88 L 484.87 588.42 L 489.70 589.66 L 494.52 591.21 L 499.35 592.83 L 504.17 591.30 L 508.99 587.83 L 513.82 587.41 L 518.64 588.24 L 523.47 586.95 L 528.29 586.53 L 533.12 587.39 L 537.94 587.14 L 542.76 582.61 L 547.59 578.21 L 552.41 579.64 L 557.24 580.31 L 562.06 580.17 L 566.88 578.86 L 571.71 575.92 L 576.53 571.96 L 581.36 567.97 L 586.18 567.30 L 591.01 567.56 L 595.83 566.72 L 600.65 563.09 L 605.48 563.37 L 610.30 560.83 L 615.13 559.59 L 619.95 562.18 L 624.77 562.78 L 629.60 560.61 L 634.42 557.99 L 639.25 554.43 L 644.07 551.89 L 648.89 549.91 L 653.72 548.87 L 658.54 551.54 L 663.37 551.58 L 668.19 547.12 L 673.02 543.66 L 677.84 545.26 L 682.66 545.42 L 687.49 547.83 L 692.31 547.16 L 697.14 545.97 L 701.96 544.22 L 706.78 540.91 L 711.61 535.95 L 716.43 537.08 L 721.26 538.80 L 726.08 537.74 L 730.90 534.60 L 735.73 533.81 L 740.55 534.57 L 745.38 533.65 L 750.20 532.83 L 755.03 531.34 L 759.85 533.82 L 764.67 531.44 L 769.50 538.14 L 774.32 532.48 L 779.15 526.14 L 783.97 515.34 L 788.79 511.54 L 793.62 513.21 L 798.44 502.00 L 803.27 497.75 L 808.09 492.32 L 812.91 488.99 L 817.74 479.01 L 822.56 477.94 L 827.39 479.19 L 832.21 482.11 L 837.04 480.25 L 841.86 475.69 L 846.68 482.76 L 851.51 488.26 L 856.33 492.39 L 861.16 488.88 L 865.98 483.49 L 870.80 483.25 L 875.63 486.65 L 880.45 485.60 L 885.28 489.27 L 890.10 491.46 L 894.92 492.78 L 899.75 481.73 L 904.57 471.93 L 909.40 475.53 L 914.22 476.46 L 919.05 479.14 L 923.87 474.58 L 928.69 469.16 L 933.52 459.83 L 938.34 453.19 L 943.17 449.26 L 947.99 451.25 L 952.81 453.59 L 957.64 447.27 L 962.46 446.44 L 967.29 441.63 L 972.11 441.79 L 976.93 447.51 L 981.76 447.97 L 986.58 443.90 L 991.41 439.10 L 996.23 432.04 L 1001.06 424.67 L 1005.88 419.81 L 1010.70 418.89 L 1015.53 421.43 L 1020.35 421.93 L 1025.18 416.45 L 1030.00 410.00" fill="none" stroke="#165a9e" stroke-width="3"/>
<line x1="70" y1="655.08" x2="1030" y2="655.08" stroke="#666" stroke-width="1" stroke-dasharray="5,5"/>
<text x="70" y="742" font-size="13" font-family="Helvetica, Arial, sans-serif" fill="#444">Steps: 200 | Checkpoints: 40 | Rolling window: 10</text>
</svg>