<svg xmlns="http://www.w3.org/2000/svg" width="900" height="560" viewBox="0 0 900 560">
<rect x="0" y="0" width="100%" height="100%" fill="white"/>
<line x1="90" y1="475" x2="860" y2="475" stroke="#222" stroke-width="2"/>
<line x1="90" y1="50" x2="90" y2="475" stroke="#222" stroke-width="2"/>
<line x1="89.7" y1="50" x2="89.7" y2="475" stroke="#ddd" stroke-width="1"/>
<text x="89.7" y="499" text-anchor="middle" font-size="13" fill="#333">28.7</text>
<line x1="474.0" y1="50" x2="474.0" y2="475" stroke="#ddd" stroke-width="1"/>
<text x="474.0" y="499" text-anchor="middle" font-size="13" fill="#333">46.7</text>
<line x1="860.5" y1="50" x2="860.5" y2="475" stroke="#ddd" stroke-width="1"/>
<text x="860.5" y="499" text-anchor="middle" font-size="13" fill="#333">64.8</text>
<line x1="90" y1="475.0" x2="860" y2="475.0" stroke="#ddd" stroke-width="1"/>
<text x="80" y="479.0" text-anchor="end" font-size="13" fill="#333">0.0312</text>
<line x1="90" y1="262.5" x2="860" y2="262.5" stroke="#ddd" stroke-width="1"/>
<text x="80" y="266.5" text-anchor="end" font-size="13" fill="#333">0.1214</text>
<line x1="90" y1="50.0" x2="860" y2="50.0" stroke="#ddd" stroke-width="1"/>
<text x="80" y="54.0" text-anchor="end" font-size="13" fill="#333">0.2116</text>
<text x="450" y="28" text-anchor="middle" font-size="20" font-weight="700" fill="#111">Thinking Models: Deviation vs Accuracy</text>
<text x="475.0" y="530" text-anchor="middle" font-size="15" fill="#111">Accuracy (LLM-as-judge mean score)</text>
<text x="25" y="262.5" transform="rotate(-90 25 262.5)" text-anchor="middle" font-size="15" fill="#111">Deviation</text>
<polyline points="143.1,324.0 700.6,396.8 806.9,426.0" fill="none" stroke="#1f77b4" stroke-width="3"/>
<polyline points="143.1,99.0 700.6,329.6 806.9,375.1" fill="none" stroke="#2ca02c" stroke-width="3"/>
<circle cx="143.1" cy="324.0" r="5" fill="#1f77b4"/>
<circle cx="143.1" cy="99.0" r="5" fill="#2ca02c"/>
<text x="151.1" y="316.0" font-size="13" font-weight="700" fill="#111">GPT</text>
<text x="151.1" y="114.0" font-size="13" font-weight="700" fill="#111">GPT</text>
<circle cx="700.6" cy="396.8" r="5" fill="#1f77b4"/>
<circle cx="700.6" cy="329.6" r="5" fill="#2ca02c"/>
<text x="708.6" y="388.8" font-size="13" font-weight="700" fill="#111">Claude</text>
<text x="708.6" y="344.6" font-size="13" font-weight="700" fill="#111">Claude</text>
<circle cx="806.9" cy="426.0" r="5" fill="#1f77b4"/>
<circle cx="806.9" cy="375.1" r="5" fill="#2ca02c"/>
<text x="814.9" y="418.0" font-size="13" font-weight="700" fill="#111">Grok</text>
<text x="814.9" y="390.1" font-size="13" font-weight="700" fill="#111">Grok</text>
<rect x="655" y="58" width="190" height="56" fill="white" stroke="#bbb"/>
<line x1="665" y1="76" x2="700" y2="76" stroke="#1f77b4" stroke-width="3"/>
<circle cx="682" cy="76" r="4" fill="#1f77b4"/>
<text x="710" y="80" font-size="12" fill="#111">Average Deviation</text>
<line x1="665" y1="98" x2="700" y2="98" stroke="#2ca02c" stroke-width="3"/>
<circle cx="682" cy="98" r="4" fill="#2ca02c"/>
<text x="710" y="102" font-size="12" fill="#111">Max Deviation</text>
</svg>