<svg xmlns="http://www.w3.org/2000/svg" width="1100" height="760" viewBox="0 0 1100 760">
<rect width="100%" height="100%" fill="#fcfbf7"/>
<text x="550.0" y="36" text-anchor="middle" font-size="24" font-family="Helvetica, Arial, sans-serif" fill="#222">Qwen3-8B Non-Reasoning DivPO Run 1</text>
<rect x="70" y="110" width="960" height="250.0" fill="white" stroke="#cfcfcf" stroke-width="1"/>
<text x="70" y="98" font-size="16" font-family="Helvetica, Arial, sans-serif" fill="#222">DPO Loss</text>
<rect x="70" y="410.0" width="960" height="250.0" fill="white" stroke="#cfcfcf" stroke-width="1"/>
<text x="70" y="398.0" font-size="16" font-family="Helvetica, Arial, sans-serif" fill="#222">Reward Margin</text>
<line x1="89.30" y1="110.00" x2="89.30" y2="360.00" stroke="#d9d9d9" stroke-width="1"/>
<line x1="89.30" y1="410.00" x2="89.30" y2="660.00" stroke="#d9d9d9" stroke-width="1"/>
<line x1="113.42" y1="110.00" x2="113.42" y2="360.00" stroke="#d9d9d9" stroke-width="1"/>
<line x1="113.42" y1="410.00" x2="113.42" y2="660.00" stroke="#d9d9d9" stroke-width="1"/>
<line x1="137.54" y1="110.00" x2="137.54" y2="360.00" stroke="#d9d9d9" stroke-width="1"/>
<line x1="137.54" y1="410.00" x2="137.54" y2="660.00" stroke="#d9d9d9" stroke-width="1"/>
<line x1="161.66" y1="110.00" x2="161.66" y2="360.00" stroke="#d9d9d9" stroke-width="1"/>
<line x1="161.66" y1="410.00" x2="161.66" y2="660.00" stroke="#d9d9d9" stroke-width="1"/>
<line x1="185.78" y1="110.00" x2="185.78" y2="360.00" stroke="#d9d9d9" stroke-width="1"/>
<line x1="185.78" y1="410.00" x2="185.78" y2="660.00" stroke="#d9d9d9" stroke-width="1"/>
<line x1="209.90" y1="110.00" x2="209.90" y2="360.00" stroke="#d9d9d9" stroke-width="1"/>
<line x1="209.90" y1="410.00" x2="209.90" y2="660.00" stroke="#d9d9d9" stroke-width="1"/>
<line x1="234.02" y1="110.00" x2="234.02" y2="360.00" stroke="#d9d9d9" stroke-width="1"/>
<line x1="234.02" y1="410.00" x2="234.02" y2="660.00" stroke="#d9d9d9" stroke-width="1"/>
<line x1="258.14" y1="110.00" x2="258.14" y2="360.00" stroke="#d9d9d9" stroke-width="1"/>
<line x1="258.14" y1="410.00" x2="258.14" y2="660.00" stroke="#d9d9d9" stroke-width="1"/>
<line x1="282.26" y1="110.00" x2="282.26" y2="360.00" stroke="#d9d9d9" stroke-width="1"/>
<line x1="282.26" y1="410.00" x2="282.26" y2="660.00" stroke="#d9d9d9" stroke-width="1"/>
<line x1="306.38" y1="110.00" x2="306.38" y2="360.00" stroke="#d9d9d9" stroke-width="1"/>
<line x1="306.38" y1="410.00" x2="306.38" y2="660.00" stroke="#d9d9d9" stroke-width="1"/>
<line x1="330.50" y1="110.00" x2="330.50" y2="360.00" stroke="#d9d9d9" stroke-width="1"/>
<line x1="330.50" y1="410.00" x2="330.50" y2="660.00" stroke="#d9d9d9" stroke-width="1"/>
<line x1="354.62" y1="110.00" x2="354.62" y2="360.00" stroke="#d9d9d9" stroke-width="1"/>
<line x1="354.62" y1="410.00" x2="354.62" y2="660.00" stroke="#d9d9d9" stroke-width="1"/>
<line x1="378.74" y1="110.00" x2="378.74" y2="360.00" stroke="#d9d9d9" stroke-width="1"/>
<line x1="378.74" y1="410.00" x2="378.74" y2="660.00" stroke="#d9d9d9" stroke-width="1"/>
<line x1="402.86" y1="110.00" x2="402.86" y2="360.00" stroke="#d9d9d9" stroke-width="1"/>
<line x1="402.86" y1="410.00" x2="402.86" y2="660.00" stroke="#d9d9d9" stroke-width="1"/>
<line x1="426.98" y1="110.00" x2="426.98" y2="360.00" stroke="#d9d9d9" stroke-width="1"/>
<line x1="426.98" y1="410.00" x2="426.98" y2="660.00" stroke="#d9d9d9" stroke-width="1"/>
<line x1="451.11" y1="110.00" x2="451.11" y2="360.00" stroke="#d9d9d9" stroke-width="1"/>
<line x1="451.11" y1="410.00" x2="451.11" y2="660.00" stroke="#d9d9d9" stroke-width="1"/>
<line x1="475.23" y1="110.00" x2="475.23" y2="360.00" stroke="#d9d9d9" stroke-width="1"/>
<line x1="475.23" y1="410.00" x2="475.23" y2="660.00" stroke="#d9d9d9" stroke-width="1"/>
<line x1="499.35" y1="110.00" x2="499.35" y2="360.00" stroke="#d9d9d9" stroke-width="1"/>
<line x1="499.35" y1="410.00" x2="499.35" y2="660.00" stroke="#d9d9d9" stroke-width="1"/>
<line x1="523.47" y1="110.00" x2="523.47" y2="360.00" stroke="#d9d9d9" stroke-width="1"/>
<line x1="523.47" y1="410.00" x2="523.47" y2="660.00" stroke="#d9d9d9" stroke-width="1"/>
<line x1="547.59" y1="110.00" x2="547.59" y2="360.00" stroke="#d9d9d9" stroke-width="1"/>
<line x1="547.59" y1="410.00" x2="547.59" y2="660.00" stroke="#d9d9d9" stroke-width="1"/>
<line x1="571.71" y1="110.00" x2="571.71" y2="360.00" stroke="#d9d9d9" stroke-width="1"/>
<line x1="571.71" y1="410.00" x2="571.71" y2="660.00" stroke="#d9d9d9" stroke-width="1"/>
<line x1="595.83" y1="110.00" x2="595.83" y2="360.00" stroke="#d9d9d9" stroke-width="1"/>
<line x1="595.83" y1="410.00" x2="595.83" y2="660.00" stroke="#d9d9d9" stroke-width="1"/>
<line x1="619.95" y1="110.00" x2="619.95" y2="360.00" stroke="#d9d9d9" stroke-width="1"/>
<line x1="619.95" y1="410.00" x2="619.95" y2="660.00" stroke="#d9d9d9" stroke-width="1"/>
<line x1="644.07" y1="110.00" x2="644.07" y2="360.00" stroke="#d9d9d9" stroke-width="1"/>
<line x1="644.07" y1="410.00" x2="644.07" y2="660.00" stroke="#d9d9d9" stroke-width="1"/>
<line x1="668.19" y1="110.00" x2="668.19" y2="360.00" stroke="#d9d9d9" stroke-width="1"/>
<line x1="668.19" y1="410.00" x2="668.19" y2="660.00" stroke="#d9d9d9" stroke-width="1"/>
<line x1="692.31" y1="110.00" x2="692.31" y2="360.00" stroke="#d9d9d9" stroke-width="1"/>
<line x1="692.31" y1="410.00" x2="692.31" y2="660.00" stroke="#d9d9d9" stroke-width="1"/>
<line x1="716.43" y1="110.00" x2="716.43" y2="360.00" stroke="#d9d9d9" stroke-width="1"/>
<line x1="716.43" y1="410.00" x2="716.43" y2="660.00" stroke="#d9d9d9" stroke-width="1"/>
<line x1="740.55" y1="110.00" x2="740.55" y2="360.00" stroke="#d9d9d9" stroke-width="1"/>
<line x1="740.55" y1="410.00" x2="740.55" y2="660.00" stroke="#d9d9d9" stroke-width="1"/>
<line x1="764.67" y1="110.00" x2="764.67" y2="360.00" stroke="#d9d9d9" stroke-width="1"/>
<line x1="764.67" y1="410.00" x2="764.67" y2="660.00" stroke="#d9d9d9" stroke-width="1"/>
<line x1="788.79" y1="110.00" x2="788.79" y2="360.00" stroke="#d9d9d9" stroke-width="1"/>
<line x1="788.79" y1="410.00" x2="788.79" y2="660.00" stroke="#d9d9d9" stroke-width="1"/>
<line x1="812.91" y1="110.00" x2="812.91" y2="360.00" stroke="#d9d9d9" stroke-width="1"/>
<line x1="812.91" y1="410.00" x2="812.91" y2="660.00" stroke="#d9d9d9" stroke-width="1"/>
<line x1="837.04" y1="110.00" x2="837.04" y2="360.00" stroke="#d9d9d9" stroke-width="1"/>
<line x1="837.04" y1="410.00" x2="837.04" y2="660.00" stroke="#d9d9d9" stroke-width="1"/>
<line x1="861.16" y1="110.00" x2="861.16" y2="360.00" stroke="#d9d9d9" stroke-width="1"/>
<line x1="861.16" y1="410.00" x2="861.16" y2="660.00" stroke="#d9d9d9" stroke-width="1"/>
<line x1="885.28" y1="110.00" x2="885.28" y2="360.00" stroke="#d9d9d9" stroke-width="1"/>
<line x1="885.28" y1="410.00" x2="885.28" y2="660.00" stroke="#d9d9d9" stroke-width="1"/>
<line x1="909.40" y1="110.00" x2="909.40" y2="360.00" stroke="#d9d9d9" stroke-width="1"/>
<line x1="909.40" y1="410.00" x2="909.40" y2="660.00" stroke="#d9d9d9" stroke-width="1"/>
<line x1="933.52" y1="110.00" x2="933.52" y2="360.00" stroke="#d9d9d9" stroke-width="1"/>
<line x1="933.52" y1="410.00" x2="933.52" y2="660.00" stroke="#d9d9d9" stroke-width="1"/>
<line x1="957.64" y1="110.00" x2="957.64" y2="360.00" stroke="#d9d9d9" stroke-width="1"/>
<line x1="957.64" y1="410.00" x2="957.64" y2="660.00" stroke="#d9d9d9" stroke-width="1"/>
<line x1="981.76" y1="110.00" x2="981.76" y2="360.00" stroke="#d9d9d9" stroke-width="1"/>
<line x1="981.76" y1="410.00" x2="981.76" y2="660.00" stroke="#d9d9d9" stroke-width="1"/>
<line x1="1005.88" y1="110.00" x2="1005.88" y2="360.00" stroke="#d9d9d9" stroke-width="1"/>
<line x1="1005.88" y1="410.00" x2="1005.88" y2="660.00" stroke="#d9d9d9" stroke-width="1"/>
<line x1="1030.00" y1="110.00" x2="1030.00" y2="360.00" stroke="#d9d9d9" stroke-width="1"/>
<line x1="1030.00" y1="410.00" x2="1030.00" y2="660.00" stroke="#d9d9d9" stroke-width="1"/>
<path d="M 70.00 259.30 L 74.82 262.25 L 79.65 258.96 L 84.47 248.80 L 89.30 256.82 L 94.12 238.57 L 98.94 259.53 L 103.77 257.19 L 108.59 261.64 L 113.42 264.00 L 118.24 265.22 L 123.07 274.68 L 127.89 270.05 L 132.71 263.05 L 137.54 258.28 L 142.36 247.10 L 147.19 258.96 L 152.01 231.46 L 156.83 271.06 L 161.66 261.96 L 166.48 274.48 L 171.31 279.24 L 176.13 248.20 L 180.95 260.17 L 185.78 259.99 L 190.60 275.23 L 195.43 303.36 L 200.25 260.66 L 205.08 247.72 L 209.90 276.72 L 214.72 293.03 L 219.55 240.69 L 224.37 280.38 L 229.20 284.78 L 234.02 290.06 L 238.84 248.39 L 243.67 269.68 L 248.49 235.98 L 253.32 301.44 L 258.14 275.10 L 262.96 292.82 L 267.79 285.85 L 272.61 273.54 L 277.44 276.21 L 282.26 272.38 L 287.09 288.83 L 291.91 286.43 L 296.73 268.91 L 301.56 251.53 L 306.38 277.10 L 311.21 264.06 L 316.03 292.81 L 320.85 255.29 L 325.68 251.62 L 330.50 254.72 L 335.33 265.58 L 340.15 275.30 L 344.97 325.88 L 349.80 298.48 L 354.62 315.19 L 359.45 267.07 L 364.27 296.02 L 369.10 316.26 L 373.92 299.19 L 378.74 300.28 L 383.57 260.12 L 388.39 318.96 L 393.22 266.46 L 398.04 246.96 L 402.86 274.74 L 407.69 290.75 L 412.51 307.38 L 417.34 235.11 L 422.16 308.91 L 426.98 244.68 L 431.81 237.70 L 436.63 286.97 L 441.46 309.42 L 446.28 284.76 L 451.11 312.08 L 455.93 240.90 L 460.75 204.25 L 465.58 302.01 L 470.40 240.13 L 475.23 318.70 L 480.05 278.23 L 484.87 314.23 L 489.70 323.01 L 494.52 295.92 L 499.35 325.32 L 504.17 279.13 L 508.99 292.80 L 513.82 335.03 L 518.64 189.11 L 523.47 247.59 L 528.29 230.95 L 533.12 280.61 L 537.94 266.36 L 542.76 110.00 L 547.59 323.11 L 552.41 280.44 L 557.24 314.78 L 562.06 205.37 L 566.88 268.99 L 571.71 257.41 L 576.53 293.89 L 581.36 290.30 L 586.18 292.99 L 591.01 303.00 L 595.83 207.36 L 600.65 298.02 L 605.48 215.46 L 610.30 346.90 L 615.13 285.32 L 619.95 283.89 L 624.77 293.70 L 629.60 209.37 L 634.42 269.01 L 639.25 305.79 L 644.07 301.03 L 648.89 262.02 L 653.72 244.27 L 658.54 321.17 L 663.37 313.27 L 668.19 270.88 L 673.02 337.72 L 677.84 286.94 L 682.66 318.19 L 687.49 333.77 L 692.31 337.63 L 697.14 306.43 L 701.96 244.09 L 706.78 266.00 L 711.61 344.22 L 716.43 344.26 L 721.26 276.88 L 726.08 311.49 L 730.90 279.15 L 735.73 219.13 L 740.55 306.48 L 745.38 285.82 L 750.20 286.07 L 755.03 304.37 L 759.85 310.55 L 764.67 269.37 L 769.50 249.44 L 774.32 252.03 L 779.15 326.27 L 783.97 299.44 L 788.79 254.24 L 793.62 216.50 L 798.44 342.20 L 803.27 265.53 L 808.09 304.13 L 812.91 287.08 L 817.74 232.52 L 822.56 180.37 L 827.39 259.77 L 832.21 267.42 L 837.04 286.07 L 841.86 297.97 L 846.68 293.86 L 851.51 240.79 L 856.33 224.28 L 861.16 336.11 L 865.98 333.39 L 870.80 344.69 L 875.63 301.07 L 880.45 270.02 L 885.28 303.03 L 890.10 346.34 L 894.92 315.62 L 899.75 314.16 L 904.57 285.74 L 909.40 318.46 L 914.22 333.25 L 919.05 176.85 L 923.87 237.20 L 928.69 292.77 L 933.52 299.53 L 938.34 229.86 L 943.17 312.23 L 947.99 318.77 L 952.81 345.56 L 957.64 338.94 L 962.46 351.72 L 967.29 360.00 L 972.11 274.95 L 976.93 344.54 L 981.76 343.89 L 986.58 273.13 L 991.41 241.09 L 996.23 317.32 L 1001.06 192.27 L 1005.88 307.59 L 1010.70 198.25 L 1015.53 298.42 L 1020.35 337.08 L 1025.18 352.60 L 1030.00 305.41" fill="none" stroke="#d1a47b" stroke-width="1.5" opacity="0.55"/>
<path d="M 70.00 154.34 L 74.82 158.88 L 79.65 157.03 L 84.47 148.31 L 89.30 148.00 L 94.12 138.47 L 98.94 140.84 L 103.77 141.72 L 108.59 143.92 L 113.42 146.40 L 118.24 148.22 L 123.07 152.03 L 127.89 155.43 L 132.71 159.80 L 137.54 160.25 L 142.36 162.87 L 147.19 162.69 L 152.01 154.80 L 156.83 157.69 L 161.66 157.07 L 166.48 159.91 L 171.31 161.30 L 176.13 154.60 L 180.95 153.72 L 185.78 154.24 L 190.60 162.86 L 195.43 176.48 L 200.25 185.43 L 205.08 178.28 L 209.90 182.80 L 214.72 188.49 L 219.55 176.67 L 224.37 186.54 L 229.20 194.09 L 234.02 203.30 L 238.84 195.08 L 243.67 184.75 L 248.49 177.18 L 253.32 193.65 L 258.14 193.15 L 262.96 193.09 L 267.79 206.93 L 272.61 204.84 L 277.44 202.21 L 282.26 196.79 L 287.09 209.19 L 291.91 214.32 L 296.73 224.42 L 301.56 209.11 L 306.38 209.73 L 311.21 200.91 L 316.03 203.04 L 320.85 197.45 L 325.68 189.91 L 330.50 184.50 L 335.33 177.37 L 340.15 173.96 L 344.97 191.42 L 349.80 205.82 L 354.62 217.50 L 359.45 218.42 L 364.27 219.41 L 369.10 238.10 L 373.92 252.68 L 378.74 266.65 L 383.57 264.98 L 388.39 278.36 L 393.22 260.15 L 398.04 244.35 L 402.86 231.95 L 407.69 239.21 L 412.51 242.69 L 417.34 217.81 L 422.16 220.79 L 426.98 203.74 L 431.81 196.87 L 436.63 187.06 L 441.46 200.23 L 446.28 211.82 L 451.11 223.26 L 455.93 207.98 L 460.75 176.36 L 465.58 196.88 L 470.40 175.79 L 475.23 198.48 L 480.05 210.91 L 484.87 219.27 L 489.70 223.43 L 494.52 226.86 L 499.35 230.91 L 504.17 242.63 L 508.99 269.78 L 513.82 279.90 L 518.64 264.26 L 523.47 242.46 L 528.29 227.97 L 533.12 217.66 L 537.94 200.29 L 542.76 143.29 L 547.59 142.61 L 552.41 143.02 L 557.24 149.75 L 562.06 110.00 L 566.88 134.49 L 571.71 137.50 L 576.53 156.80 L 581.36 159.77 L 586.18 167.93 L 591.01 227.10 L 595.83 191.62 L 600.65 197.01 L 605.48 166.56 L 610.30 209.95 L 615.13 214.96 L 619.95 223.08 L 624.77 223.02 L 629.60 198.21 L 634.42 190.85 L 639.25 191.71 L 644.07 220.43 L 648.89 209.39 L 653.72 218.22 L 658.54 210.33 L 663.37 218.90 L 668.19 214.91 L 673.02 228.41 L 677.84 252.19 L 682.66 267.27 L 687.49 275.85 L 692.31 287.07 L 697.14 300.69 L 701.96 300.63 L 706.78 283.72 L 711.61 293.20 L 716.43 315.70 L 721.26 297.05 L 726.08 304.57 L 730.90 292.60 L 735.73 257.46 L 740.55 247.91 L 745.38 241.59 L 750.20 254.46 L 755.03 266.22 L 759.85 255.90 L 764.67 232.94 L 769.50 224.53 L 774.32 206.30 L 779.15 220.75 L 783.97 245.37 L 788.79 229.35 L 793.62 208.10 L 798.44 225.31 L 803.27 213.40 L 808.09 211.43 L 812.91 216.86 L 817.74 211.67 L 822.56 189.70 L 827.39 169.31 L 832.21 159.50 L 837.04 169.25 L 841.86 194.23 L 846.68 179.41 L 851.51 171.82 L 856.33 147.34 L 861.16 162.37 L 865.98 193.30 L 870.80 243.68 L 875.63 256.34 L 880.45 257.14 L 885.28 262.34 L 890.10 277.17 L 894.92 283.84 L 899.75 306.33 L 904.57 325.18 L 909.40 319.77 L 914.22 319.72 L 919.05 268.26 L 923.87 248.68 L 928.69 255.66 L 933.52 254.59 L 938.34 218.88 L 943.17 217.84 L 947.99 219.25 L 952.81 237.59 L 957.64 243.87 L 962.46 249.53 L 967.29 305.69 L 972.11 317.26 L 976.93 333.13 L 981.76 346.73 L 986.58 360.00 L 991.41 338.19 L 996.23 337.74 L 1001.06 290.75 L 1005.88 281.13 L 1010.70 234.08 L 1015.53 215.20 L 1020.35 234.25 L 1025.18 236.72 L 1030.00 224.92" fill="none" stroke="#9c3f12" stroke-width="3"/>
<path d="M 70.00 591.38 L 74.82 588.59 L 79.65 591.71 L 84.47 599.34 L 89.30 593.31 L 94.12 606.46 L 98.94 590.84 L 103.77 593.30 L 108.59 589.45 L 113.42 587.60 L 118.24 585.99 L 123.07 577.06 L 127.89 582.29 L 132.71 588.18 L 137.54 591.37 L 142.36 601.04 L 147.19 586.32 L 152.01 609.48 L 156.83 581.02 L 161.66 588.50 L 166.48 574.72 L 171.31 571.81 L 176.13 595.37 L 180.95 588.96 L 185.78 590.10 L 190.60 576.63 L 195.43 541.61 L 200.25 590.14 L 205.08 578.54 L 209.90 576.60 L 214.72 555.39 L 219.55 600.30 L 224.37 572.35 L 229.20 560.35 L 234.02 560.30 L 238.84 586.56 L 243.67 577.67 L 248.49 588.93 L 253.32 542.89 L 258.14 557.84 L 262.96 557.06 L 267.79 559.45 L 272.61 576.38 L 277.44 575.50 L 282.26 579.68 L 287.09 520.66 L 291.91 563.69 L 296.73 582.19 L 301.56 596.56 L 306.38 574.29 L 311.21 584.84 L 316.03 541.93 L 320.85 579.86 L 325.68 566.96 L 330.50 574.24 L 335.33 574.22 L 340.15 535.10 L 344.97 506.32 L 349.80 540.51 L 354.62 516.79 L 359.45 564.06 L 364.27 526.55 L 369.10 499.26 L 373.92 531.04 L 378.74 548.81 L 383.57 581.29 L 388.39 522.90 L 393.22 572.89 L 398.04 598.46 L 402.86 572.10 L 407.69 528.36 L 412.51 515.95 L 417.34 573.25 L 422.16 527.86 L 426.98 587.80 L 431.81 589.64 L 436.63 557.30 L 441.46 520.84 L 446.28 547.14 L 451.11 495.18 L 455.93 581.12 L 460.75 622.64 L 465.58 516.23 L 470.40 601.97 L 475.23 504.48 L 480.05 519.59 L 484.87 521.28 L 489.70 481.52 L 494.52 534.01 L 499.35 509.87 L 504.17 494.06 L 508.99 527.84 L 513.82 480.90 L 518.64 611.58 L 523.47 566.65 L 528.29 601.26 L 533.12 527.96 L 537.94 558.43 L 542.76 660.00 L 547.59 501.68 L 552.41 563.13 L 557.24 523.52 L 562.06 594.50 L 566.88 577.20 L 571.71 570.80 L 576.53 552.04 L 581.36 508.58 L 586.18 549.42 L 591.01 541.14 L 595.83 618.86 L 600.65 534.90 L 605.48 618.09 L 610.30 436.63 L 615.13 486.84 L 619.95 564.72 L 624.77 554.90 L 629.60 619.56 L 634.42 580.17 L 639.25 520.28 L 644.07 505.04 L 648.89 579.30 L 653.72 574.03 L 658.54 503.49 L 663.37 513.38 L 668.19 561.13 L 673.02 456.68 L 677.84 563.89 L 682.66 484.83 L 687.49 436.84 L 692.31 464.02 L 697.14 505.98 L 701.96 578.13 L 706.78 585.43 L 711.61 430.44 L 716.43 410.00 L 721.26 568.15 L 726.08 516.08 L 730.90 525.87 L 735.73 614.46 L 740.55 475.88 L 745.38 551.80 L 750.20 533.05 L 755.03 541.70 L 759.85 522.24 L 764.67 551.41 L 769.50 582.94 L 774.32 587.46 L 779.15 417.28 L 783.97 544.52 L 788.79 537.45 L 793.62 611.82 L 798.44 411.37 L 803.27 557.73 L 808.09 523.51 L 812.91 519.40 L 817.74 555.01 L 822.56 601.34 L 827.39 570.02 L 832.21 560.49 L 837.04 501.64 L 841.86 467.94 L 846.68 558.69 L 851.51 589.61 L 856.33 615.37 L 861.16 436.50 L 865.98 453.01 L 870.80 474.00 L 875.63 525.80 L 880.45 510.78 L 885.28 533.71 L 890.10 452.68 L 894.92 503.27 L 899.75 472.95 L 904.57 533.32 L 909.40 469.10 L 914.22 454.05 L 919.05 595.38 L 923.87 571.19 L 928.69 532.18 L 933.52 530.68 L 938.34 538.62 L 943.17 503.48 L 947.99 516.13 L 952.81 458.20 L 957.64 432.36 L 962.46 436.74 L 967.29 413.03 L 972.11 526.81 L 976.93 451.70 L 981.76 481.99 L 986.58 551.58 L 991.41 537.63 L 996.23 441.17 L 1001.06 578.27 L 1005.88 485.94 L 1010.70 572.23 L 1015.53 496.71 L 1020.35 442.87 L 1025.18 430.17 L 1030.00 505.08" fill="none" stroke="#9bb8d8" stroke-width="1.5" opacity="0.55"/>
<path d="M 70.00 652.31 L 74.82 649.45 L 79.65 650.63 L 84.47 655.13 L 89.30 655.36 L 94.12 660.00 L 98.94 658.74 L 103.77 658.43 L 108.59 657.31 L 113.42 656.04 L 118.24 654.93 L 123.07 652.57 L 127.89 650.64 L 132.71 648.35 L 137.54 647.96 L 142.36 646.85 L 147.19 645.92 L 152.01 649.24 L 156.83 647.51 L 161.66 647.69 L 166.48 645.38 L 171.31 644.31 L 176.13 646.99 L 180.95 647.15 L 185.78 646.89 L 190.60 641.89 L 195.43 632.73 L 200.25 628.76 L 205.08 628.25 L 209.90 625.82 L 214.72 621.86 L 219.55 627.69 L 224.37 622.98 L 229.20 617.11 L 234.02 611.01 L 238.84 613.04 L 243.67 620.43 L 248.49 620.18 L 253.32 612.88 L 258.14 609.03 L 262.96 609.38 L 267.79 601.01 L 272.61 601.83 L 277.44 604.94 L 282.26 608.91 L 287.09 595.41 L 291.91 592.54 L 296.73 591.16 L 301.56 602.16 L 306.38 605.53 L 311.21 611.22 L 316.03 607.63 L 320.85 608.34 L 325.68 606.59 L 330.50 605.48 L 335.33 616.45 L 340.15 610.60 L 344.97 595.05 L 349.80 583.56 L 354.62 571.78 L 359.45 567.52 L 364.27 564.37 L 369.10 547.86 L 373.92 540.50 L 378.74 535.29 L 383.57 536.74 L 388.39 534.24 L 393.22 547.88 L 398.04 559.75 L 402.86 571.08 L 407.69 563.77 L 412.51 561.60 L 417.34 576.76 L 422.16 576.11 L 426.98 584.09 L 431.81 585.81 L 436.63 592.85 L 441.46 582.19 L 446.28 571.67 L 451.11 555.91 L 455.93 566.72 L 460.75 588.58 L 465.58 576.90 L 470.40 592.09 L 475.23 575.01 L 480.05 560.66 L 484.87 553.28 L 489.70 545.23 L 494.52 542.54 L 499.35 545.54 L 504.17 527.71 L 508.99 508.28 L 513.82 501.04 L 518.64 503.01 L 523.47 515.75 L 528.29 532.48 L 533.12 533.85 L 537.94 549.61 L 542.76 575.42 L 547.59 573.75 L 552.41 587.90 L 557.24 587.02 L 562.06 610.29 L 566.88 603.25 L 571.71 604.10 L 576.53 594.01 L 581.36 590.04 L 586.18 588.20 L 591.01 563.84 L 595.83 587.85 L 600.65 582.07 L 605.48 601.44 L 610.30 569.10 L 615.13 550.58 L 619.95 549.33 L 624.77 549.92 L 629.60 572.66 L 634.42 578.96 L 639.25 574.69 L 644.07 551.37 L 648.89 560.46 L 653.72 551.44 L 658.54 565.13 L 663.37 570.57 L 668.19 569.84 L 673.02 549.71 L 677.84 538.31 L 682.66 518.77 L 687.49 501.67 L 692.31 493.27 L 697.14 478.24 L 701.96 479.09 L 706.78 495.88 L 711.61 478.88 L 716.43 447.92 L 721.26 470.76 L 726.08 460.96 L 730.90 469.37 L 735.73 505.76 L 740.55 508.19 L 745.38 517.58 L 750.20 508.35 L 755.03 499.38 L 759.85 518.19 L 764.67 547.17 L 769.50 550.20 L 774.32 564.83 L 779.15 542.57 L 783.97 528.24 L 788.79 540.86 L 793.62 553.16 L 798.44 528.23 L 803.27 531.51 L 808.09 531.77 L 812.91 525.21 L 817.74 519.49 L 822.56 522.33 L 827.39 553.63 L 832.21 556.90 L 837.04 549.56 L 841.86 520.08 L 846.68 550.26 L 851.51 556.80 L 856.33 575.62 L 861.16 558.63 L 865.98 537.73 L 870.80 511.65 L 875.63 502.58 L 880.45 492.40 L 885.28 498.97 L 890.10 495.84 L 894.92 484.49 L 899.75 460.59 L 904.57 443.77 L 909.40 450.45 L 914.22 450.67 L 919.05 475.54 L 923.87 484.84 L 928.69 489.22 L 933.52 488.60 L 938.34 506.21 L 943.17 506.25 L 947.99 515.10 L 952.81 499.71 L 957.64 492.18 L 962.46 488.63 L 967.29 451.27 L 972.11 442.18 L 976.93 425.68 L 981.76 415.71 L 986.58 418.36 L 991.41 425.36 L 996.23 410.00 L 1001.06 434.60 L 1005.88 445.58 L 1010.70 473.34 L 1015.53 490.49 L 1020.35 473.29 L 1025.18 468.88 L 1030.00 473.61" fill="none" stroke="#165a9e" stroke-width="3"/>
<line x1="70" y1="589.60" x2="1030" y2="589.60" stroke="#666" stroke-width="1" stroke-dasharray="5,5"/>
<text x="70" y="742" font-size="13" font-family="Helvetica, Arial, sans-serif" fill="#444">Steps: 200 | Checkpoints: 40 | Rolling window: 10</text>
</svg>